name D:\school\WTK\thesis\model\3dpredictsim\Results\MidTarsalJoint\Fal_s1_bCst_PF_Natali2010_ls150_MT_k800_MTP_T5_ig23.mot
datacolumns 128
datarows 4
range 0.55966510 0.59324501
endheader
time	pelvis_tilt	pelvis_list	pelvis_rotation	pelvis_tx	pelvis_ty	pelvis_tz	hip_flexion_l	hip_adduction_l	hip_rotation_l	hip_flexion_r	hip_adduction_r	hip_rotation_r	knee_angle_l	knee_angle_r	ankle_angle_l	ankle_angle_r	subtalar_angle_l	subtalar_angle_r	mtj_angle_l	mtj_angle_r	mtp_angle_l	mtp_angle_r	lumbar_extension	lumbar_bending	lumbar_rotation	arm_flex_l	arm_add_l	arm_rot_l	arm_flex_r	arm_add_r	arm_rot_r	elbow_flex_l	elbow_flex_r	pro_sup_l	pro_sup_r	glut_med1_l/activation	glut_med2_l/activation	glut_med3_l/activation	glut_min1_l/activation	glut_min2_l/activation	glut_min3_l/activation	semimem_l/activation	semiten_l/activation	bifemlh_l/activation	bifemsh_l/activation	sar_l/activation	add_long_l/activation	add_brev_l/activation	add_mag1_l/activation	add_mag2_l/activation	add_mag3_l/activation	tfl_l/activation	pect_l/activation	grac_l/activation	glut_max1_l/activation	glut_max2_l/activation	glut_max3_l/activation	iliacus_l/activation	psoas_l/activation	quad_fem_l/activation	gem_l/activation	peri_l/activation	rect_fem_l/activation	vas_med_l/activation	vas_int_l/activation	vas_lat_l/activation	med_gas_l/activation	lat_gas_l/activation	soleus_l/activation	tib_post_l/activation	flex_dig_l/activation	flex_hal_l/activation	tib_ant_l/activation	per_brev_l/activation	per_long_l/activation	per_tert_l/activation	ext_dig_l/activation	ext_hal_l/activation	ercspn_l/activation	intobl_l/activation	extobl_l/activation	glut_med1_r/activation	glut_med2_r/activation	glut_med3_r/activation	glut_min1_r/activation	glut_min2_r/activation	glut_min3_r/activation	semimem_r/activation	semiten_r/activation	bifemlh_r/activation	bifemsh_r/activation	sar_r/activation	add_long_r/activation	add_brev_r/activation	add_mag1_r/activation	add_mag2_r/activation	add_mag3_r/activation	tfl_r/activation	pect_r/activation	grac_r/activation	glut_max1_r/activation	glut_max2_r/activation	glut_max3_r/activation	iliacus_r/activation	psoas_r/activation	quad_fem_r/activation	gem_r/activation	peri_r/activation	rect_fem_r/activation	vas_med_r/activation	vas_int_r/activation	vas_lat_r/activation	med_gas_r/activation	lat_gas_r/activation	soleus_r/activation	tib_post_r/activation	flex_dig_r/activation	flex_hal_r/activation	tib_ant_r/activation	per_brev_r/activation	per_long_r/activation	per_tert_r/activation	ext_dig_r/activation	ext_hal_r/activation	ercspn_r/activation	intobl_r/activation	extobl_r/activation	
          0.55966510	         -2.93002185	          2.02871719	         -5.10690564	          0.69958138	          0.91956588	          0.00196392	         29.28348646	          3.31538659	         -2.71827323	        -17.27951524	         -0.94058035	          6.33386171	        -11.70670967	         -6.85236973	          5.85346006	         -0.86512552	         -3.83318690	          8.08646299	         -0.06099651	          1.80575169	          0.49911699	         18.53890846	         -2.10902009	         -0.26676440	          1.98986739	         -4.69316801	        -13.45301611	          6.86297723	          5.11019187	        -13.45702843	         16.66646440	         16.52676466	         33.36481649	         86.51662706	         86.51662706	          0.05932774	          0.05932774	          0.05000001	          0.05932774	          0.05932774	          0.05932767	          0.12578416	          0.05932778	          0.21416039	          0.05000003	          0.05000001	          0.13953955	          0.29945230	          0.11456405	          0.15254911	          0.10480507	          0.05000000	          0.06065750	          0.11021450	          0.05000003	          0.05000007	          0.15255760	          0.05000018	          0.05000000	          0.24104108	          0.26963177	          0.13069095	          0.05000028	          0.13172823	          0.13032905	          0.11634200	          0.05137226	          0.05286264	          0.05564090	          0.05000000	          0.05000003	          0.05000001	          0.52751327	          0.25991147	          0.16329347	          0.19504773	          0.46790614	          0.22511213	          0.05932774	          0.11329124	          0.10052459	          0.26259052	          0.09911099	          0.07039764	          0.29397245	          0.19329123	          0.10713586	          0.05000010	          0.05000002	          0.05000000	          0.05932820	          0.10288833	          0.09536357	          0.07038808	          0.05000012	          0.05000021	          0.05000007	          0.30715074	          0.05057586	          0.05000017	          0.05000021	          0.05000019	          0.05000018	          0.39308998	          0.64202934	          0.05000002	          0.05000003	          0.05215878	          0.22596685	          0.05000014	          0.05000013	          0.05000011	          0.28401873	          0.38906181	          0.31111401	          0.29221371	          0.28566914	          0.37501548	          0.05000000	          0.05822458	          0.11532049	          0.05000001	          0.05000000	          0.05000001	          0.05000000	          0.05000001	          0.05172782	
          0.57085840	         -2.92642310	          2.11954432	         -5.38676850	          0.71643613	          0.91862157	          0.00175984	         28.66746528	          3.66181496	         -2.48383839	        -17.15137434	         -1.23887705	          6.13705885	        -11.97788157	         -8.76416235	          5.21340144	         -1.51762386	         -4.20179861	          9.02315086	         -0.09019548	          1.38728475	          0.50880040	         19.86983071	         -1.91085203	         -0.47469999	          2.05521541	         -5.55907619	        -13.45233298	          6.57690423	          4.82404960	        -13.46615305	         16.97288638	         16.16933358	         34.51786043	         86.51662706	         86.51662706	          0.05000000	          0.05000000	          0.10995248	          0.05000000	          0.05000000	          0.05000000	          0.10600787	          0.05000003	          0.18048922	          0.05000000	          0.05933223	          0.11760059	          0.27097973	          0.33338617	          0.21604785	          0.11758463	          0.05000003	          0.07039557	          0.12998035	          0.05317218	          0.08845167	          0.12910501	          0.05000000	          0.07039560	          0.47593629	          0.22723917	          0.11014319	          0.06330556	          0.14918687	          0.15190265	          0.12807933	          0.05000009	          0.06157110	          0.05000000	          0.05932775	          0.05000084	          0.05932774	          0.48884687	          0.31071345	          0.20138052	          0.16438154	          0.42459751	          0.18971909	          0.05000000	          0.09547912	          0.08471971	          0.22130497	          0.08352836	          0.05932944	          0.24775291	          0.16290119	          0.09029153	          0.05000018	          0.05000004	          0.05000008	          0.05000038	          0.08671182	          0.18717228	          0.05932769	          0.05932804	          0.05932774	          0.05932780	          0.25885926	          0.09200024	          0.05000029	          0.05000029	          0.05000022	          0.05000045	          0.33128677	          0.58736460	          0.05000015	          0.05932777	          0.05932775	          0.19043945	          0.13403801	          0.14979084	          0.14069234	          0.23936415	          0.32789192	          0.26219940	          0.25174132	          0.24075512	          0.31605408	          0.05000000	          0.05000000	          0.12994863	          0.05000000	          0.05000000	          0.05000000	          0.05726528	          0.06894109	          0.05690643	
          0.58205171	         -2.91886321	          2.21423176	         -5.63907729	          0.73357035	          0.91771662	          0.00157200	         27.92105889	          3.91843640	         -2.22339133	        -16.95044844	         -1.53730223	          5.92858717	        -12.48766140	        -10.79022580	          4.70106104	         -2.34078212	         -4.59534081	          9.91731998	         -0.12694945	          0.91938164	          0.46296305	         21.14958245	         -1.69377716	         -0.69345134	          2.10897473	         -6.45078518	        -13.45891091	          6.34785964	          4.46212994	        -13.47299370	         17.20110861	         15.86111797	         35.66042816	         86.51662706	         86.51662706	          0.24458357	          0.24088530	          0.30820249	          0.37091051	          0.23847340	          0.23014295	          0.09701399	          0.05000019	          0.15211203	          0.06884156	          0.05000381	          0.09911095	          0.22837520	          0.28096984	          0.18207993	          0.11783005	          0.05000003	          0.05932800	          0.10954439	          0.05000002	          0.11554653	          0.10880661	          0.05454361	          0.05932772	          0.40110765	          0.19151171	          0.22124187	          0.05335240	          0.12573111	          0.12801991	          0.10794218	          0.05000007	          0.05189065	          0.05343725	          0.05000001	          0.05000003	          0.05000005	          0.55583387	          0.30107787	          0.16971866	          0.38229136	          0.50282354	          0.15989085	          0.06354081	          0.11759637	          0.07139973	          0.31745772	          0.07039569	          0.05000142	          0.32594305	          0.13728921	          0.07609553	          0.05000011	          0.05000001	          0.05000000	          0.05000001	          0.07307866	          0.15774430	          0.05000007	          0.05000026	          0.05000010	          0.05000007	          0.25727301	          0.07753585	          0.05000009	          0.05000015	          0.05000008	          0.05000005	          0.27920052	          0.55478587	          0.05000001	          0.05000006	          0.05000002	          0.16049778	          0.11296402	          0.12624012	          0.11857212	          0.20173034	          0.27633941	          0.22097534	          0.21216153	          0.20290263	          0.26636278	          0.05000000	          0.09883390	          0.14978126	          0.05000000	          0.05000000	          0.05000000	          0.05276140	          0.05810189	          0.05000000	
          0.59324501	         -2.90945034	          2.30338208	         -5.85884724	          0.75077250	          0.91687398	          0.00135973	         27.11697151	          4.15381419	         -1.96033499	        -16.64351015	         -1.82703184	          5.72623555	        -12.95216613	        -12.96478566	          4.28052084	         -3.33849490	         -4.98893588	         10.77400379	         -0.14413919	          0.43685757	          0.48187113	         22.28751344	         -1.48034019	         -0.91289240	          2.15354538	         -7.32143256	        -13.46610326	          6.17767378	          4.06054460	        -13.48571774	         17.37660840	         15.57815768	         36.77199073	         86.51662706	         86.51662706	          0.33304947	          0.33298843	          0.35462676	          0.31259447	          0.20142723	          0.19396184	          0.08316637	          0.08641032	          0.12819637	          0.05943232	          0.05000004	          0.08352833	          0.19246912	          0.23679464	          0.17361917	          0.16225298	          0.05000001	          0.05000028	          0.09760013	          0.20909951	          0.17699492	          0.15735612	          0.05000000	          0.05000000	          0.33804387	          0.16140146	          0.18645735	          0.05000000	          0.10596329	          0.15209826	          0.09097115	          0.05000000	          0.05000000	          0.05000000	          0.05000000	          0.05000000	          0.05000000	          0.61148842	          0.29593766	          0.16098020	          0.57214008	          0.53597797	          0.27604801	          0.08399084	          0.09910739	          0.06017397	          0.28952381	          0.05932779	          0.05000000	          0.27469699	          0.11570404	          0.06413148	          0.05000017	          0.05000001	          0.05000001	          0.05000000	          0.06158895	          0.15739763	          0.08767150	          0.05000048	          0.05000043	          0.05000037	          0.22244597	          0.06534547	          0.05000008	          0.05000022	          0.05000016	          0.05000013	          0.23530348	          0.50354344	          0.05000001	          0.05000006	          0.05000000	          0.13526367	          0.12599514	          0.11987711	          0.11760058	          0.17001347	          0.23289220	          0.18623269	          0.17880463	          0.17100146	          0.22448414	          0.05627517	          0.09224931	          0.15377076	          0.05000002	          0.11208327	          0.05000007	          0.08028211	          0.05000000	          0.05000000	
